<?xml version="1.0" encoding="UTF-8"?> <svg xmlns="http://www.w3.org/2000/svg" width="24" height="25" viewBox="0 0 24 25" fill="none"> <path d="M1.85 23.5H0.85V24.9022L2.17571 24.4455L1.85 23.5ZM1.85 19.3L1.53231 18.3518L0.85 18.5804V19.3H1.85ZM21.25 12.8L21.5677 13.7482L22.25 13.5196V12.8H21.25ZM21.25 12.2H22.25V11.4804L21.5677 11.2518L21.25 12.2ZM1.85 5.7H0.85V6.41958L1.53231 6.64819L1.85 5.7ZM1.85 1.5L2.17571 0.554529L0.85 0.0978241V1.5H1.85ZM22.75 8.7H23.75V7.98682L23.0757 7.75453L22.75 8.7ZM22.75 16.3L23.0757 17.2455L23.75 17.0132V16.3H22.75ZM2.85 23.5V19.3H0.85V23.5H2.85ZM2.16769 20.2482L21.5677 13.7482L20.9323 11.8518L1.53231 18.3518L2.16769 20.2482ZM22.25 12.8V12.2H20.25V12.8H22.25ZM21.5677 11.2518L2.16769 4.7518L1.53231 6.64819L20.9323 13.1482L21.5677 11.2518ZM2.85 5.7V1.5H0.85V5.7H2.85ZM1.52429 2.44547L22.4243 9.64547L23.0757 7.75453L2.17571 0.554529L1.52429 2.44547ZM21.75 8.7V16.3H23.75V8.7H21.75ZM22.4243 15.3545L1.52429 22.5545L2.17571 24.4455L23.0757 17.2455L22.4243 15.3545Z" fill="#EAEAEA"></path> </svg> 