<?xml version="1.0" encoding="UTF-8"?> <svg xmlns="http://www.w3.org/2000/svg" width="103" height="86" viewBox="0 0 103 86" fill="none"> <path fill-rule="evenodd" clip-rule="evenodd" d="M0.999987 0H43.1538V38.8517C43.1538 50.6838 40.079 60.5432 33.862 68.3538C27.7542 76.1563 18.8356 81.676 7.19476 84.9624L6.27656 85.2216L0.889893 69.0823L1.8336 68.7633C5.68839 67.4602 8.85541 66.1168 11.3489 64.7385C13.8288 63.2668 15.7794 61.6687 17.227 59.9552C18.6704 58.1457 19.6814 56.1 20.2613 53.8078C20.7888 51.723 21.0863 49.3033 21.1436 46.5403H0.999987V0ZM22.1538 45.5403C22.1538 45.878 22.1505 46.2114 22.1438 46.5403C22.0864 49.3699 21.7821 51.8742 21.2308 54.0531C20.6154 56.4853 19.5384 58.6642 18 60.5897C16.4615 62.4139 14.4102 64.0861 11.8461 65.6062C9.28204 67.025 6.05127 68.3932 2.15383 69.7106L6.92306 84C18.4102 80.757 27.1282 75.3352 33.0769 67.7344C39.1282 60.1337 42.1538 50.5061 42.1538 38.8517V1H1.99999V45.5403H22.1538ZM60.8461 0H103V38.8517C103 50.6839 99.9251 60.5433 93.708 68.354C87.6002 76.1563 78.6817 81.676 67.0409 84.9624L66.1227 85.2216L60.736 69.0823L61.6798 68.7633C65.5345 67.4602 68.7015 66.1168 71.195 64.7385C73.6749 63.2668 75.6256 61.6688 77.0731 59.9552C78.5165 58.1457 79.5275 56.1 80.1075 53.8078C80.6349 51.723 80.9325 49.3033 80.9898 46.5403H60.8461V0ZM82 45.5403C82 45.878 81.9967 46.2114 81.99 46.5403C81.9326 49.3699 81.6282 51.8742 81.0769 54.0531C80.4615 56.4853 79.3846 58.6642 77.8461 60.5897C76.3077 62.4139 74.2564 64.0861 71.6923 65.6062C69.1284 67.0249 65.8979 68.393 62.0009 69.7103C62.0006 69.7104 62.0012 69.7102 62.0009 69.7103L66.7692 83.9999C78.2564 80.7569 86.9743 75.3352 92.9231 67.7344C98.9743 60.1337 102 50.5061 102 38.8517V1H61.8461V45.5403H82Z" fill="#EAEAEA"></path> </svg> 